<?xml version="1.0" encoding="utf-8"?>
<!-- Generator: Adobe Illustrator 25.1.0, SVG Export Plug-In . SVG Version: 6.00 Build 0)  -->
<svg version="1.1" id="Layer_1" xmlns="http://www.w3.org/2000/svg" xmlns:xlink="http://www.w3.org/1999/xlink" x="0px" y="0px"
	 viewBox="0 0 14 16" style="enable-background:new 0 0 14 16;" xml:space="preserve">
<style type="text/css">
	.st0{fill-rule:evenodd;clip-rule:evenodd;fill:#979DA4;}
	.st1{filter:url(#Adobe_OpacityMaskFilter);}
	.st2{fill-rule:evenodd;clip-rule:evenodd;fill:#FFFFFF;}
	.st3{mask:url(#mask-2_1_);}
</style>
<g id="Symbols">
	<g id="Group-5">
		<g id="Fill-1">
			<path id="path-1_1_" class="st0" d="M12,4.5c0.2,0,0.3,0.1,0.3,0.2c0.1,0.1,0.2,0.3,0.1,0.4l0,0L11.5,14c0,0.3-0.2,0.5-0.5,0.5
				l0,0H2.9c-0.2,0-0.4-0.2-0.5-0.5l0,0L1.5,5.1c0-0.2,0-0.3,0.1-0.4C1.7,4.6,1.8,4.5,2,4.5l0,0H12z M5.2,7C4.8,7,4.5,7.3,4.5,7.8
				l0,0v3.5c0,0.4,0.3,0.8,0.8,0.8S6,11.7,6,11.2l0,0V7.8C6,7.3,5.7,7,5.2,7z M8.7,7C8.3,7,8,7.3,8,7.8l0,0v3.5
				C8,11.7,8.3,12,8.7,12c0.4,0,0.8-0.3,0.8-0.8l0,0V7.8C9.5,7.3,9.2,7,8.7,7z M12,3c0.5,0,1.1,0.2,1.4,0.6c0.4,0.4,0.6,1,0.5,1.6
				L13,14.2c-0.1,1-0.9,1.8-2,1.8H2.9c-1,0-1.8-0.8-2-1.8L0,5.2c-0.1-0.6,0.1-1.2,0.5-1.6C0.9,3.2,1.4,3,2,3H12z M10.2,0
				C10.7,0,11,0.3,11,0.8s-0.3,0.8-0.8,0.8H3.7C3.3,1.5,3,1.2,3,0.8S3.3,0,3.7,0H10.2z"/>
		</g>
		<defs>
			<filter id="Adobe_OpacityMaskFilter" filterUnits="userSpaceOnUse">
				<feColorMatrix  type="matrix" values="1 0 0 0 0  0 1 0 0 0  0 0 1 0 0  0 0 0 1 0"/>
			</filter>
		</defs>
		<mask maskUnits="userSpaceOnUse" id="mask-2_1_">
			<g class="st1">
				<path id="path-1_2_" class="st2" d="M12,4.5c0.2,0,0.3,0.1,0.3,0.2c0.1,0.1,0.2,0.3,0.1,0.4l0,0L11.5,14c0,0.3-0.2,0.5-0.5,0.5
					l0,0H2.9c-0.2,0-0.4-0.2-0.5-0.5l0,0L1.5,5.1c0-0.2,0-0.3,0.1-0.4C1.7,4.6,1.8,4.5,2,4.5l0,0H12z M5.2,7C4.8,7,4.5,7.3,4.5,7.8
					l0,0v3.5c0,0.4,0.3,0.8,0.8,0.8S6,11.7,6,11.2l0,0V7.8C6,7.3,5.7,7,5.2,7z M8.7,7C8.3,7,8,7.3,8,7.8l0,0v3.5
					C8,11.7,8.3,12,8.7,12c0.4,0,0.8-0.3,0.8-0.8l0,0V7.8C9.5,7.3,9.2,7,8.7,7z M12,3c0.5,0,1.1,0.2,1.4,0.6c0.4,0.4,0.6,1,0.5,1.6
					L13,14.2c-0.1,1-0.9,1.8-2,1.8H2.9c-1,0-1.8-0.8-2-1.8L0,5.2c-0.1-0.6,0.1-1.2,0.5-1.6C0.9,3.2,1.4,3,2,3H12z M10.2,0
					C10.7,0,11,0.3,11,0.8s-0.3,0.8-0.8,0.8H3.7C3.3,1.5,3,1.2,3,0.8S3.3,0,3.7,0H10.2z"/>
			</g>
		</mask>
		<g id="Group" class="st3">
		</g>
	</g>
</g>
</svg>
